<svg width="500" height="300" viewBox="0 0 500 300" fill="none" xmlns="http://www.w3.org/2000/svg">
  <rect width="500" height="300" fill="#F5F7FA" />
  <rect x="60" y="50" width="150" height="200" rx="8" fill="white" stroke="#E2E8F0" stroke-width="2" />
  <rect x="80" y="70" width="110" height="20" rx="4" fill="#EDF2F7" />
  <rect x="80" y="100" width="110" height="12" rx="4" fill="#EDF2F7" />
  <rect x="80" y="120" width="110" height="12" rx="4" fill="#EDF2F7" />
  <rect x="80" y="140" width="110" height="12" rx="4" fill="#EDF2F7" />
  <rect x="80" y="170" width="70" height="12" rx="4" fill="#EDF2F7" />
  <rect x="80" y="190" width="70" height="12" rx="4" fill="#EDF2F7" />
  <rect x="80" y="210" width="70" height="12" rx="4" fill="#EDF2F7" />
  
  <rect x="240" y="50" width="200" height="200" rx="8" fill="white" stroke="#E2E8F0" stroke-width="2" />
  <rect x="260" y="70" width="160" height="20" rx="4" fill="#EDF2F7" />
  <rect x="260" y="100" width="160" height="60" rx="4" fill="#EDF2F7" />
  <circle cx="290" cy="180" r="20" fill="#4299E1" opacity="0.8" />
  <circle cx="340" cy="180" r="20" fill="#48BB78" opacity="0.8" />
  <circle cx="390" cy="180" r="20" fill="#ED8936" opacity="0.8" />
  <rect x="260" y="210" width="100" height="20" rx="4" fill="#4299E1" opacity="0.8" />
  
  <circle cx="425" cy="75" r="25" fill="#4299E1" opacity="0.2" />
  <path d="M415 75L425 85L435 65" stroke="#4299E1" stroke-width="4" stroke-linecap="round" stroke-linejoin="round" />
</svg>