<svg width="600" height="400" viewBox="0 0 600 400" fill="none" xmlns="http://www.w3.org/2000/svg">
  <rect width="600" height="400" fill="#F5F7FA" />
  <rect x="150" y="80" width="300" height="240" rx="8" fill="white" stroke="#E2E8F0" stroke-width="2" />
  <rect x="180" y="110" width="240" height="24" rx="4" fill="#EDF2F7" />
  <rect x="180" y="150" width="120" height="16" rx="4" fill="#EDF2F7" />
  <rect x="180" y="180" width="240" height="16" rx="4" fill="#EDF2F7" />
  <rect x="180" y="210" width="240" height="16" rx="4" fill="#EDF2F7" />
  <rect x="180" y="240" width="180" height="16" rx="4" fill="#EDF2F7" />
  <rect x="180" y="270" width="120" height="16" rx="4" fill="#EDF2F7" />
  <circle cx="420" cy="300" r="30" fill="#4299E1" opacity="0.8" />
  <path d="M410 300L420 310L430 290" stroke="white" stroke-width="4" stroke-linecap="round" stroke-linejoin="round" />
  <rect x="80" y="140" width="120" height="160" rx="8" fill="white" stroke="#E2E8F0" stroke-width="2" />
  <rect x="100" y="160" width="80" height="12" rx="4" fill="#EDF2F7" />
  <rect x="100" y="180" width="80" height="80" rx="4" fill="#EDF2F7" />
  <rect x="100" y="270" width="80" height="10" rx="4" fill="#EDF2F7" />
  <rect x="400" y="140" width="120" height="160" rx="8" fill="white" stroke="#E2E8F0" stroke-width="2" />
  <rect x="420" y="160" width="80" height="12" rx="4" fill="#EDF2F7" />
  <rect x="420" y="180" width="80" height="10" rx="4" fill="#EDF2F7" />
  <rect x="420" y="200" width="80" height="10" rx="4" fill="#EDF2F7" />
  <rect x="420" y="220" width="80" height="10" rx="4" fill="#EDF2F7" />
  <rect x="420" y="240" width="80" height="10" rx="4" fill="#EDF2F7" />
  <rect x="420" y="260" width="60" height="10" rx="4" fill="#4299E1" opacity="0.8" />
  <rect x="420" y="280" width="60" height="10" rx="4" fill="#EDF2F7" />
</svg>