<svg width="300" height="400" viewBox="0 0 300 400" fill="none" xmlns="http://www.w3.org/2000/svg">
  <rect width="300" height="400" rx="8" fill="white" stroke="#E2E8F0" stroke-width="2" />
  <rect x="20" y="20" width="260" height="40" rx="4" fill="#EDF2F7" />
  <rect x="20" y="70" width="120" height="16" rx="4" fill="#EDF2F7" />
  <rect x="20" y="100" width="260" height="2" fill="#E2E8F0" />
  <rect x="20" y="120" width="80" height="24" rx="4" fill="#EDF2F7" />
  <rect x="20" y="155" width="260" height="16" rx="4" fill="#EDF2F7" />
  <rect x="20" y="180" width="260" height="16" rx="4" fill="#EDF2F7" />
  <rect x="20" y="205" width="180" height="16" rx="4" fill="#EDF2F7" />
  <rect x="20" y="240" width="80" height="24" rx="4" fill="#EDF2F7" />
  <rect x="20" y="275" width="260" height="16" rx="4" fill="#EDF2F7" />
  <rect x="20" y="300" width="260" height="16" rx="4" fill="#EDF2F7" />
  <rect x="20" y="325" width="180" height="16" rx="4" fill="#EDF2F7" />
  <rect x="20" y="360" width="80" height="24" rx="4" fill="#4299E1" opacity="0.8" />
</svg>